<?xml version="1.0" encoding="UTF-8" standalone="no"?>
<!-- Created with Inkscape (http://www.inkscape.org/) -->

<svg
   xmlns:dc="http://purl.org/dc/elements/1.1/"
   xmlns:cc="http://creativecommons.org/ns#"
   xmlns:rdf="http://www.w3.org/1999/02/22-rdf-syntax-ns#"
   xmlns:svg="http://www.w3.org/2000/svg"
   xmlns="http://www.w3.org/2000/svg"
   xmlns:sodipodi="http://sodipodi.sourceforge.net/DTD/sodipodi-0.dtd"
   xmlns:inkscape="http://www.inkscape.org/namespaces/inkscape"
   width="1052.3622"
   height="744.09448"
   id="svg2"
   version="1.1"
   inkscape:version="0.92.2 (5c3e80d, 2017-08-06)"
   sodipodi:docname="Venn_Diagram_of_numbers2.svg">
  <defs
     id="defs4">
    <inkscape:perspective
       sodipodi:type="inkscape:persp3d"
       inkscape:vp_x="0 : 526.18109 : 1"
       inkscape:vp_y="0 : 1000 : 0"
       inkscape:vp_z="744.09448 : 526.18109 : 1"
       inkscape:persp3d-origin="372.04724 : 350.78739 : 1"
       id="perspective10" />
    <inkscape:perspective
       id="perspective2828"
       inkscape:persp3d-origin="0.5 : 0.33333333 : 1"
       inkscape:vp_z="1 : 0.5 : 1"
       inkscape:vp_y="0 : 1000 : 0"
       inkscape:vp_x="0 : 0.5 : 1"
       sodipodi:type="inkscape:persp3d" />
    <inkscape:perspective
       id="perspective2876"
       inkscape:persp3d-origin="0.5 : 0.33333333 : 1"
       inkscape:vp_z="1 : 0.5 : 1"
       inkscape:vp_y="0 : 1000 : 0"
       inkscape:vp_x="0 : 0.5 : 1"
       sodipodi:type="inkscape:persp3d" />
    <inkscape:perspective
       id="perspective2876-4"
       inkscape:persp3d-origin="0.5 : 0.33333333 : 1"
       inkscape:vp_z="1 : 0.5 : 1"
       inkscape:vp_y="0 : 1000 : 0"
       inkscape:vp_x="0 : 0.5 : 1"
       sodipodi:type="inkscape:persp3d" />
    <inkscape:perspective
       id="perspective2922"
       inkscape:persp3d-origin="0.5 : 0.33333333 : 1"
       inkscape:vp_z="1 : 0.5 : 1"
       inkscape:vp_y="0 : 1000 : 0"
       inkscape:vp_x="0 : 0.5 : 1"
       sodipodi:type="inkscape:persp3d" />
    <inkscape:perspective
       id="perspective2953"
       inkscape:persp3d-origin="0.5 : 0.33333333 : 1"
       inkscape:vp_z="1 : 0.5 : 1"
       inkscape:vp_y="0 : 1000 : 0"
       inkscape:vp_x="0 : 0.5 : 1"
       sodipodi:type="inkscape:persp3d" />
    <inkscape:perspective
       id="perspective2953-7"
       inkscape:persp3d-origin="0.5 : 0.33333333 : 1"
       inkscape:vp_z="1 : 0.5 : 1"
       inkscape:vp_y="0 : 1000 : 0"
       inkscape:vp_x="0 : 0.5 : 1"
       sodipodi:type="inkscape:persp3d" />
    <inkscape:perspective
       id="perspective2953-2"
       inkscape:persp3d-origin="0.5 : 0.33333333 : 1"
       inkscape:vp_z="1 : 0.5 : 1"
       inkscape:vp_y="0 : 1000 : 0"
       inkscape:vp_x="0 : 0.5 : 1"
       sodipodi:type="inkscape:persp3d" />
    <inkscape:perspective
       id="perspective3022"
       inkscape:persp3d-origin="0.5 : 0.33333333 : 1"
       inkscape:vp_z="1 : 0.5 : 1"
       inkscape:vp_y="0 : 1000 : 0"
       inkscape:vp_x="0 : 0.5 : 1"
       sodipodi:type="inkscape:persp3d" />
    <inkscape:perspective
       id="perspective3022-9"
       inkscape:persp3d-origin="0.5 : 0.33333333 : 1"
       inkscape:vp_z="1 : 0.5 : 1"
       inkscape:vp_y="0 : 1000 : 0"
       inkscape:vp_x="0 : 0.5 : 1"
       sodipodi:type="inkscape:persp3d" />
    <inkscape:perspective
       id="perspective3022-4"
       inkscape:persp3d-origin="0.5 : 0.33333333 : 1"
       inkscape:vp_z="1 : 0.5 : 1"
       inkscape:vp_y="0 : 1000 : 0"
       inkscape:vp_x="0 : 0.5 : 1"
       sodipodi:type="inkscape:persp3d" />
    <inkscape:perspective
       id="perspective3083"
       inkscape:persp3d-origin="0.5 : 0.33333333 : 1"
       inkscape:vp_z="1 : 0.5 : 1"
       inkscape:vp_y="0 : 1000 : 0"
       inkscape:vp_x="0 : 0.5 : 1"
       sodipodi:type="inkscape:persp3d" />
    <inkscape:perspective
       id="perspective3083-3"
       inkscape:persp3d-origin="0.5 : 0.33333333 : 1"
       inkscape:vp_z="1 : 0.5 : 1"
       inkscape:vp_y="0 : 1000 : 0"
       inkscape:vp_x="0 : 0.5 : 1"
       sodipodi:type="inkscape:persp3d" />
    <inkscape:perspective
       id="perspective3083-7"
       inkscape:persp3d-origin="0.5 : 0.33333333 : 1"
       inkscape:vp_z="1 : 0.5 : 1"
       inkscape:vp_y="0 : 1000 : 0"
       inkscape:vp_x="0 : 0.5 : 1"
       sodipodi:type="inkscape:persp3d" />
    <inkscape:perspective
       id="perspective3144"
       inkscape:persp3d-origin="0.5 : 0.33333333 : 1"
       inkscape:vp_z="1 : 0.5 : 1"
       inkscape:vp_y="0 : 1000 : 0"
       inkscape:vp_x="0 : 0.5 : 1"
       sodipodi:type="inkscape:persp3d" />
    <inkscape:perspective
       id="perspective3166"
       inkscape:persp3d-origin="0.5 : 0.33333333 : 1"
       inkscape:vp_z="1 : 0.5 : 1"
       inkscape:vp_y="0 : 1000 : 0"
       inkscape:vp_x="0 : 0.5 : 1"
       sodipodi:type="inkscape:persp3d" />
    <inkscape:perspective
       id="perspective3188"
       inkscape:persp3d-origin="0.5 : 0.33333333 : 1"
       inkscape:vp_z="1 : 0.5 : 1"
       inkscape:vp_y="0 : 1000 : 0"
       inkscape:vp_x="0 : 0.5 : 1"
       sodipodi:type="inkscape:persp3d" />
    <inkscape:perspective
       id="perspective3210"
       inkscape:persp3d-origin="0.5 : 0.33333333 : 1"
       inkscape:vp_z="1 : 0.5 : 1"
       inkscape:vp_y="0 : 1000 : 0"
       inkscape:vp_x="0 : 0.5 : 1"
       sodipodi:type="inkscape:persp3d" />
  </defs>
  <sodipodi:namedview
     id="base"
     pagecolor="#ffffff"
     bordercolor="#666666"
     borderopacity="1.0"
     inkscape:pageopacity="0.0"
     inkscape:pageshadow="2"
     inkscape:zoom="0.92938525"
     inkscape:cx="317.68978"
     inkscape:cy="330.52542"
     inkscape:document-units="px"
     inkscape:current-layer="layer1"
     showgrid="false"
     inkscape:window-width="1920"
     inkscape:window-height="1001"
     inkscape:window-x="2391"
     inkscape:window-y="-9"
     inkscape:window-maximized="1" />
  <metadata
     id="metadata7">
    <rdf:RDF>
      <cc:Work
         rdf:about="">
        <dc:format>image/svg+xml</dc:format>
        <dc:type
           rdf:resource="http://purl.org/dc/dcmitype/StillImage" />
        <dc:title></dc:title>
      </cc:Work>
    </rdf:RDF>
  </metadata>
  <g
     inkscape:label="Livello 1"
     inkscape:groupmode="layer"
     id="layer1"
     transform="translate(0,-308.2677)">
    <path
       transform="matrix(1.1007193,0,0,1.0221675,-69.375476,214.57552)"
       style="fill:#87aade;fill-opacity:1;fill-rule:nonzero;stroke:none"
       d="m 984.69034,457.29147 c 0,178.63655 -198.31606,323.45008 -442.95133,323.45008 -244.63526,0 -442.951321,-144.81353 -442.951321,-323.45008 0,-178.63654 198.316061,-323.45007 442.951321,-323.45007 244.63527,0 442.95133,144.81353 442.95133,323.45007 z"
       id="path2816" />
    <path
       transform="matrix(0.52651514,0,0,0.75155278,633.88082,475.40784)"
       style="fill:#3771c8;fill-opacity:1;fill-rule:nonzero;stroke:none"
       d="m 683.54718,293.97308 c 0,70.83863 -94.16446,128.26468 -210.3222,128.26468 -116.15775,0 -210.32221,-57.42605 -210.32221,-128.26468 0,-70.83862 94.16446,-128.26468 210.32221,-128.26468 116.15774,0 210.3222,57.42606 210.3222,128.26468 z"
       id="path2818" />
    <path
       transform="matrix(1.6628789,0,0,1.8322981,-375.50648,153.71442)"
       style="fill:#bcd35f;fill-opacity:1;fill-rule:nonzero;stroke:none"
       d="m 683.54718,293.97308 c 0,70.83863 -94.16446,128.26468 -210.3222,128.26468 -116.15775,0 -210.32221,-57.42605 -210.32221,-128.26468 0,-70.83862 94.16446,-128.26468 210.32221,-128.26468 116.15774,0 210.3222,57.42606 210.3222,128.26468 z"
       id="path2818-1" />
    <g
       style="font-size:20px;font-style:normal;font-weight:normal;fill:#000000;fill-opacity:1;stroke:none;font-family:Bitstream Vera Sans"
       id="flowRoot2852" />
    <g
       id="flowRoot2842-7"
       style="font-style:normal;font-variant:normal;font-weight:normal;font-stretch:normal;font-size:64px;line-height:100%;font-family:'Academy Engraved LET';-inkscape-font-specification:'Academy Engraved LET';text-align:start;writing-mode:lr-tb;text-anchor:start;fill:#000000;fill-opacity:1;stroke:none"
       transform="translate(1095.0177,152.73947)">
      <path
         inkscape:connector-curvature="0"
         id="path2920"
         d="m -295.3125,353.65905 c -2.56252,-0.6875 -4.95835,-1.72916 -7.1875,-3.125 -2.12501,-1.31249 -3.91668,-2.92707 -5.375,-4.84375 -1.45834,-1.89582 -2.54167,-4.03123 -3.25,-6.40625 -0.75001,-2.37498 -1.12501,-4.96873 -1.125,-7.78125 -10e-6,-2.10414 0.18749,-3.97914 0.5625,-5.625 0.37499,-1.62497 0.98958,-3.21872 1.84375,-4.78125 0.85416,-1.5208 1.91666,-2.91663 3.1875,-4.1875 1.27082,-1.27079 2.84374,-2.54162 4.71875,-3.8125 -2.20835,0.97921 -4.13543,2.13546 -5.78125,3.46875 -1.62501,1.31254 -3.03126,2.82295 -4.21875,4.53125 -1.10417,1.62503 -1.96875,3.45837 -2.59375,5.5 -0.58334,1.95836 -0.875,4.04169 -0.875,6.25 0,2.29169 0.33333,4.52085 1,6.6875 0.625,2.04168 1.57291,3.9896 2.84375,5.84375 1.20833,1.77084 2.69791,3.27084 4.46875,4.5 1.68749,1.18751 3.49998,2.08334 5.4375,2.6875 1.87498,0.60417 3.98956,0.96875 6.34375,1.09375 z m 16.09375,-42 3.65625,11.15625 h -1.0625 c -1.06254,-2.04163 -2.12504,-3.73955 -3.1875,-5.09375 -1.14587,-1.41663 -2.31254,-2.57287 -3.5,-3.46875 -1.2292,-0.89579 -2.53128,-1.54162 -3.90625,-1.9375 -1.4167,-0.41662 -2.96878,-0.62495 -4.65625,-0.625 -2.45836,5e-5 -4.75002,0.46879 -6.875,1.40625 -2.14585,0.93754 -3.9896,2.26046 -5.53125,3.96875 -1.58335,1.75004 -2.79168,3.77087 -3.625,6.0625 -0.87501,2.33336 -1.31251,4.84378 -1.3125,7.53125 -10e-6,4.02086 0.80207,7.71877 2.40625,11.09375 1.58332,3.33335 3.79165,5.95834 6.625,7.875 2.79165,1.91667 5.89581,2.875 9.3125,2.875 2.3333,0 4.54163,-0.45833 6.625,-1.375 2.04163,-0.91666 3.86455,-2.23958 5.46875,-3.96875 1.60413,-1.72916 2.99996,-3.90624 4.1875,-6.53125 h 1.28125 c -1.75004,4.62501 -4.38546,8.12501 -7.90625,10.5 -3.52087,2.39584 -7.82295,3.59375 -12.90625,3.59375 -5.93752,0 -10.85418,-1.60416 -14.75,-4.8125 -1.70834,-1.45832 -3.10417,-3.04166 -4.1875,-4.75 -1.16667,-1.79165 -2.04167,-3.73957 -2.625,-5.84375 -0.60417,-2.12498 -0.90625,-4.29164 -0.90625,-6.5 0,-4.12497 1.05208,-7.91663 3.15625,-11.375 2.10416,-3.45829 4.98957,-6.16662 8.65625,-8.125 3.64582,-1.95829 7.70831,-2.93745 12.1875,-2.9375 1.81247,5e-5 4.28122,0.27088 7.40625,0.8125 2.06246,0.39588 3.60413,0.5938 4.625,0.59375 0.47913,5e-5 0.92704,-0.0416 1.34375,-0.125 z" />
    </g>
    <g
       id="flowRoot2842"
       style="font-style:normal;font-variant:normal;font-weight:normal;font-stretch:normal;font-size:64px;line-height:100%;font-family:'Academy Engraved LET';-inkscape-font-specification:'Academy Engraved LET';text-align:start;writing-mode:lr-tb;text-anchor:start;fill:#000000;fill-opacity:1;stroke:none"
       transform="translate(839.71068,195.26878)">
      <path
         inkscape:connector-curvature="0"
         id="path2968"
         d="m -311.34375,351.34655 -1.21875,0.90625 h 9.125 l -1.21875,-0.90625 c -0.70835,-0.52083 -1.15626,-0.93749 -1.34375,-1.25 -0.20835,-0.29166 -0.31251,-0.76041 -0.3125,-1.40625 v -0.6875 c -0.0208,-0.0625 -0.0313,-0.17707 -0.0312,-0.34375 v -0.53125 -29.21875 -0.53125 c -10e-6,-0.16663 0.0104,-0.29163 0.0312,-0.375 v -0.65625 c -10e-6,-0.58329 0.0937,-1.03121 0.28125,-1.34375 0.12499,-0.27079 0.5104,-0.65621 1.15625,-1.15625 l 0.21875,-0.15625 1.75,-1.34375 -1.125,0.0625 c -1.89585,0.12504 -3.60418,0.18754 -5.125,0.1875 -0.93751,4e-5 -2.21876,-0.0312 -3.84375,-0.0937 l 1.65625,1.1875 c 0.68749,0.47921 1.13541,0.87504 1.34375,1.1875 0.20832,0.33338 0.31249,0.82296 0.3125,1.46875 0.0208,0.22921 0.0312,0.57296 0.0312,1.03125 v 0.53125 29.21875 0.53125 c -1e-5,0.45834 -0.0104,0.80209 -0.0312,1.03125 -10e-6,0.64584 -0.0938,1.11459 -0.28125,1.40625 -0.16668,0.27084 -0.62501,0.68751 -1.375,1.25 z m 39.65625,2.53125 c -1.08338,-0.58333 -1.97921,-1.13541 -2.6875,-1.65625 -0.77088,-0.56249 -1.57296,-1.26041 -2.40625,-2.09375 -1.04171,-1.10416 -1.88546,-2.11457 -2.53125,-3.03125 -0.68754,-0.91666 -1.70837,-2.5104 -3.0625,-4.78125 -1.4167,-2.33332 -2.61462,-4.1354 -3.59375,-5.40625 -1.1042,-1.39581 -2.18753,-2.49998 -3.25,-3.3125 -1.10419,-0.85414 -2.30211,-1.54164 -3.59375,-2.0625 0.85414,0.83336 1.54164,1.67711 2.0625,2.53125 0.35414,0.58336 0.87497,1.5521 1.5625,2.90625 0.12497,0.20835 0.2656,0.45835 0.42188,0.75 0.15621,0.29169 0.24476,0.46877 0.26562,0.53125 0.0625,0.12502 0.2708,0.56252 0.625,1.3125 2.22913,4.35418 4.62496,7.65626 7.1875,9.90625 2.56246,2.27084 5.56246,3.73959 9,4.40625 z m -19.71875,-23.53125 c 1.43747,-0.31247 2.71872,-0.76039 3.84375,-1.34375 1.16663,-0.60414 2.11455,-1.2708 2.84375,-2 0.7708,-0.7708 1.35413,-1.62497 1.75,-2.5625 0.3958,-0.93747 0.59371,-1.93747 0.59375,-3 -4e-5,-2.2708 -0.81254,-4.24996 -2.4375,-5.9375 -1.62503,-1.68746 -3.77086,-2.77079 -6.4375,-3.25 1.22914,0.66671 2.22914,1.43754 3,2.3125 0.8333,0.93754 1.44788,1.94796 1.84375,3.03125 0.41663,1.18754 0.62497,2.4167 0.625,3.6875 -3e-5,2.2917 -0.44795,4.14586 -1.34375,5.5625 -0.89586,1.45836 -2.32295,2.62503 -4.28125,3.5 z m -12.1875,-10.96875 v 10.84375 H -298 c 3.22914,3e-5 5.55206,-0.36456 6.96875,-1.09375 1.29164,-0.66664 2.29164,-1.67705 3,-3.03125 0.7083,-1.3333 1.06247,-2.8958 1.0625,-4.6875 -3e-5,-1.8333 -0.4167,-3.47913 -1.25,-4.9375 -0.83336,-1.43746 -2.01045,-2.57287 -3.53125,-3.40625 -1.54169,-0.79162 -3.27086,-1.18745 -5.1875,-1.1875 -2.87502,5e-5 -4.81252,0.89588 -5.8125,2.6875 -0.56252,1.02087 -0.84377,2.62504 -0.84375,4.8125 z m 5.4375,12.09375 h -5.4375 v 12.84375 c -2e-5,1.75001 0.11457,3.08334 0.34375,4 0.22915,0.89584 0.64582,1.67709 1.25,2.34375 1.06248,1.12501 2.70831,1.86459 4.9375,2.21875 v 0.96875 h -19.875 v -0.96875 c 2.22916,-0.375 3.86458,-1.23958 4.90625,-2.59375 0.79166,-1.02083 1.18749,-3.01041 1.1875,-5.96875 v -23.59375 c -10e-6,-1.93746 -0.10417,-3.31246 -0.3125,-4.125 -0.22917,-0.89579 -0.61459,-1.62496 -1.15625,-2.1875 -1.00001,-1.10412 -2.54167,-1.85412 -4.625,-2.25 v -0.96875 c 0.1875,0.0209 0.44791,0.0313 0.78125,0.0312 l 2.75,0.15625 c 1.10416,0.0626 2.38541,0.0938 3.84375,0.0937 2.31249,5e-5 4.40624,-0.0937 6.28125,-0.28125 l 4.375,-0.375 c 1.37498,-0.12495 2.72914,-0.18745 4.0625,-0.1875 2.45831,5e-5 4.65622,0.25005 6.59375,0.75 1.91663,0.50005 3.55205,1.21879 4.90625,2.15625 1.3333,0.93754 2.36455,2.08337 3.09375,3.4375 0.72913,1.39587 1.09371,2.92712 1.09375,4.59375 -4e-5,2.81253 -0.95837,5.00003 -2.875,6.5625 -1.9167,1.56253 -4.77087,2.48961 -8.5625,2.78125 2.3333,0.89586 4.31247,2.14586 5.9375,3.75 1.62496,1.60419 3.54163,4.20835 5.75,7.8125 2.58329,4.10418 4.57287,6.91667 5.96875,8.4375 1.47912,1.60417 3.0937,2.72917 4.84375,3.375 v 0.875 c -2.20838,-0.0208 -4.13546,-0.22916 -5.78125,-0.625 -1.62504,-0.375 -3.21879,-1.04166 -4.78125,-2 -2.00004,-1.22916 -3.86462,-2.88541 -5.59375,-4.96875 -1.77087,-2.10416 -3.30211,-4.48957 -4.59375,-7.15625 L -290.5,336.9403 c -0.75003,-1.56248 -1.44794,-2.74998 -2.09375,-3.5625 -0.58336,-0.72914 -1.30211,-1.22914 -2.15625,-1.5 -0.81252,-0.27081 -1.94794,-0.40622 -3.40625,-0.40625 z" />
    </g>
    <path
       transform="matrix(1.0719698,0,0,1.3850931,-197.05128,293.14741)"
       style="fill:#ffe680;fill-opacity:1;fill-rule:nonzero;stroke:none"
       d="m 683.54718,293.97308 c 0,70.83863 -94.16446,128.26468 -210.3222,128.26468 -116.15775,0 -210.32221,-57.42605 -210.32221,-128.26468 0,-70.83862 94.16446,-128.26468 210.32221,-128.26468 116.15774,0 210.3222,57.42606 210.3222,128.26468 z"
       id="path2818-1-8" />
    <path
       transform="matrix(0.46590914,0,0,0.75155278,428.33864,471.42447)"
       style="fill:#89a02c;fill-opacity:1;fill-rule:nonzero;stroke:none"
       d="m 683.54718,293.97308 c 0,70.83863 -94.16446,128.26468 -210.3222,128.26468 -116.15775,0 -210.32221,-57.42605 -210.32221,-128.26468 0,-70.83862 94.16446,-128.26468 210.32221,-128.26468 116.15774,0 210.3222,57.42606 210.3222,128.26468 z"
       id="path2818-1-8-6" />
    <g
       id="g3254"
       transform="translate(-16.405177,3.2823947)">
      <g
         transform="translate(620.73053,230.66806)"
         style="font-size:64px;font-style:normal;font-variant:normal;font-weight:normal;font-stretch:normal;text-align:start;line-height:100%;writing-mode:lr-tb;text-anchor:start;fill:#000000;fill-opacity:1;stroke:none;font-family:Academy Engraved LET;-inkscape-font-specification:Academy Engraved LET"
         id="flowRoot2842-5-1">
        <path
           d="m -273.75,358.47155 c -2.20838,2.64583 -4.64587,3.96874 -7.3125,3.96875 -3.18753,-10e-6 -7.7917,-1.76042 -13.8125,-5.28125 -2.47919,-1.4375 -4.06252,-2.30208 -4.75,-2.59375 -0.89585,-0.375 -1.69793,-0.5625 -2.40625,-0.5625 -0.68752,0 -1.28127,0.10417 -1.78125,0.3125 -0.52085,0.20834 -1.15626,0.59375 -1.90625,1.15625 0.81249,-0.3125 1.46874,-0.46875 1.96875,-0.46875 0.70832,0 1.49998,0.20834 2.375,0.625 0.85415,0.41667 2.3229,1.35417 4.40625,2.8125 1.68748,1.14583 3.19789,2.14583 4.53125,3 0.97914,0.62499 2.06247,1.24999 3.25,1.875 2.4583,1.27083 4.68747,1.90624 6.6875,1.90625 1.8333,-10e-6 3.51038,-0.58334 5.03125,-1.75 1.49996,-1.16667 2.73954,-2.83334 3.71875,-5 z m -12.71875,-6.65625 c 7.62496,-4.41666 11.43746,-10.83332 11.4375,-19.25 -4e-5,-2.74997 -0.41671,-5.34372 -1.25,-7.78125 -0.81254,-2.3958 -2.01046,-4.59371 -3.59375,-6.59375 -1.56254,-1.91663 -3.38545,-3.44787 -5.46875,-4.59375 4.56246,4.00004 6.84371,10.2292 6.84375,18.6875 -4e-5,2.47919 -0.21879,4.84377 -0.65625,7.09375 -0.45837,2.27085 -1.08337,4.25001 -1.875,5.9375 -0.4792,1.00001 -0.90629,1.76043 -1.28125,2.28125 -0.52087,0.72918 -1.08337,1.39584 -1.6875,2 -0.62503,0.66667 -1.44795,1.40626 -2.46875,2.21875 z m -17.15625,-0.0312 c -1.83335,-1.37499 -3.36459,-2.99999 -4.59375,-4.875 -1.25001,-1.89582 -2.16667,-4.05207 -2.75,-6.46875 -0.62501,-2.47915 -0.93751,-5.17706 -0.9375,-8.09375 -10e-6,-4.35414 0.66666,-8.05205 2,-11.09375 1.33332,-3.06246 3.42707,-5.66663 6.28125,-7.8125 -2.47918,1.33338 -4.59376,2.95837 -6.34375,4.875 -1.79167,1.93754 -3.13542,4.1042 -4.03125,6.5 -0.9375,2.39586 -1.40625,4.96878 -1.40625,7.71875 0,2.70836 0.46875,5.27085 1.40625,7.6875 0.89583,2.41668 2.23958,4.6146 4.03125,6.59375 1.74999,1.95834 3.86457,3.61459 6.34375,4.96875 z m -5.09375,-19.4375 c -10e-6,3.06252 0.34374,5.89585 1.03125,8.5 0.66666,2.58335 1.65624,4.81251 2.96875,6.6875 1.31248,1.89584 2.85415,3.31251 4.625,4.25 1.79165,0.97917 3.78123,1.46875 5.96875,1.46875 3.58331,0 6.69789,-1.41666 9.34375,-4.25 1.60413,-1.72916 2.86455,-4.03124 3.78125,-6.90625 0.87496,-2.85415 1.31246,-6.11456 1.3125,-9.78125 -4e-5,-3.16664 -0.33337,-6.06247 -1,-8.6875 -0.68754,-2.5833 -1.65629,-4.78121 -2.90625,-6.59375 -1.31253,-1.85412 -2.83337,-3.24996 -4.5625,-4.1875 -1.7917,-0.97912 -3.80211,-1.4687 -6.03125,-1.46875 -2.18752,5e-5 -4.1771,0.48963 -5.96875,1.46875 -1.79168,1.00004 -3.32293,2.41671 -4.59375,4.25 -1.25001,1.81254 -2.22918,4.0417 -2.9375,6.6875 -0.68751,2.62503 -1.03126,5.47919 -1.03125,8.5625 z m 5.65625,20.78125 c -2.75001,-1.18749 -5.13543,-2.82291 -7.15625,-4.90625 -2.02084,-2.06249 -3.58334,-4.46874 -4.6875,-7.21875 -1.125,-2.72915 -1.6875,-5.54165 -1.6875,-8.4375 0,-2.99997 0.58333,-5.88539 1.75,-8.65625 1.14583,-2.72913 2.77083,-5.1458 4.875,-7.25 2.04166,-2.04162 4.43749,-3.64579 7.1875,-4.8125 2.72915,-1.12495 5.59373,-1.68745 8.59375,-1.6875 4.04164,5e-5 7.78122,1.00005 11.21875,3 3.41663,2.04171 6.13537,4.77087 8.15625,8.1875 1.99995,3.43753 2.99995,7.17711 3,11.21875 -5e-5,3.00002 -0.56255,5.8646 -1.6875,8.59375 -1.16671,2.75001 -2.78129,5.15626 -4.84375,7.21875 -2.06254,2.06251 -4.46879,3.67709 -7.21875,4.84375 -2.7292,1.14584 -5.62503,1.71875 -8.6875,1.71875 -0.93752,0 -1.72919,-0.0417 -2.375,-0.125 l 0.1875,0.0937 c 0.52081,0.27084 1.13539,0.58333 1.84375,0.9375 l 2.625,1.40625 c 2.79164,1.47916 4.9583,2.47916 6.5,3 1.56247,0.5625 3.0208,0.84375 4.375,0.84375 1.29163,0 2.42704,-0.22917 3.40625,-0.6875 0.99996,-0.4375 1.92704,-1.14584 2.78125,-2.125 0.87496,-1 1.68745,-2.23958 2.4375,-3.71875 l 0.875,0.3125 c -0.77088,2.9375 -1.68755,5.35416 -2.75,7.25 -1.06254,1.85416 -2.31254,3.23957 -3.75,4.15625 -1.47921,0.91666 -3.14587,1.37499 -5,1.375 -1.77087,-10e-6 -3.5417,-0.44793 -5.3125,-1.34375 -1.83336,-0.89584 -4.10419,-2.42709 -6.8125,-4.59375 L -298,359.5028 c -1.39585,-1.16667 -2.62502,-2.0625 -3.6875,-2.6875 -0.93752,-0.5 -1.79168,-0.75 -2.5625,-0.75 -0.89585,0 -1.71876,0.25 -2.46875,0.75 -0.75001,0.52083 -1.60418,1.39583 -2.5625,2.625 l -0.75,-0.5625 c 2.31249,-3.625 4.6354,-5.54166 6.96875,-5.75 z"
           id="path2982" />
      </g>
      <text
         xml:space="preserve"
         style="font-style:normal;font-weight:normal;font-size:34.43884659px;line-height:1.25;font-family:sans-serif;letter-spacing:0px;word-spacing:0px;fill:#000000;fill-opacity:1;stroke:none;stroke-width:0.86097115"
         x="256.0607"
         y="628.98828"
         id="text244"><tspan
           sodipodi:role="line"
           id="tspan242"
           x="256.0607"
           y="628.98828"
           style="stroke-width:0.86097115">Rational</tspan></text>
    </g>
    <g
       id="flowRoot2842-5-6"
       style="font-style:normal;font-variant:normal;font-weight:normal;font-stretch:normal;font-size:64px;line-height:100%;font-family:'Academy Engraved LET';-inkscape-font-specification:'Academy Engraved LET';text-align:start;writing-mode:lr-tb;text-anchor:start;fill:#000000;fill-opacity:1;stroke:none"
       transform="translate(956.02161,338.09413)">
      <path
         inkscape:connector-curvature="0"
         id="path2942"
         d="m -311.34375,351.34655 -1.21875,0.90625 h 9.125 l -1.21875,-0.90625 c -0.70835,-0.52083 -1.15626,-0.93749 -1.34375,-1.25 -0.20835,-0.29166 -0.31251,-0.76041 -0.3125,-1.40625 v -0.6875 c -0.0208,-0.0625 -0.0313,-0.17707 -0.0312,-0.34375 v -0.53125 -29.21875 -0.53125 c -10e-6,-0.16663 0.0104,-0.29163 0.0312,-0.375 v -0.65625 c -10e-6,-0.64579 0.10415,-1.11454 0.3125,-1.40625 0.18749,-0.31246 0.6354,-0.72912 1.34375,-1.25 l 1.78125,-1.3125 h -10.25 l 1.78125,1.3125 c 0.72916,0.54171 1.18749,0.94796 1.375,1.21875 0.18749,0.27088 0.28124,0.75004 0.28125,1.4375 0.0208,0.22921 0.0312,0.57296 0.0312,1.03125 v 0.53125 29.21875 0.53125 c -1e-5,0.45834 -0.0104,0.80209 -0.0312,1.03125 -10e-6,0.64584 -0.0938,1.11459 -0.28125,1.40625 -0.16668,0.27084 -0.62501,0.68751 -1.375,1.25 z m 13.875,2.5 h -19.46875 v -0.96875 c 2.22916,-0.375 3.86458,-1.23958 4.90625,-2.59375 0.79166,-1.02083 1.18749,-3.01041 1.1875,-5.96875 v -23.59375 c -10e-6,-1.93746 -0.10417,-3.31246 -0.3125,-4.125 -0.22917,-0.89579 -0.61459,-1.62496 -1.15625,-2.1875 -1.02084,-1.14579 -2.5625,-1.89579 -4.625,-2.25 v -0.96875 h 19.46875 v 0.96875 c -2.25002,0.37504 -3.89585,1.23963 -4.9375,2.59375 -0.41668,0.54171 -0.71877,1.26046 -0.90625,2.15625 -0.18752,0.89587 -0.28127,2.1667 -0.28125,3.8125 v 23.59375 c -2e-5,1.70834 0.11457,3.04168 0.34375,4 0.22915,0.93751 0.61457,1.70834 1.15625,2.3125 1.02082,1.14584 2.56248,1.89584 4.625,2.25 z" />
    </g>
    <path
       transform="matrix(0.86363643,0,0,0.8136646,-99.259376,515.30594)"
       style="fill:#ff9955;fill-opacity:1;fill-rule:nonzero;stroke:none"
       d="m 683.54718,293.97308 c 0,70.83863 -94.16446,128.26468 -210.3222,128.26468 -116.15775,0 -210.32221,-57.42605 -210.32221,-128.26468 0,-70.83862 94.16446,-128.26468 210.32221,-128.26468 116.15774,0 210.3222,57.42606 210.3222,128.26468 z"
       id="path2818-1-8-6-5" />
    <path
       transform="matrix(0.439394,0,0,0.55900621,174.7968,590.16865)"
       style="fill:#ff5555;fill-opacity:1;fill-rule:nonzero;stroke:none"
       d="m 683.54718,293.97308 c 0,70.83863 -94.16446,128.26468 -210.3222,128.26468 -116.15775,0 -210.32221,-57.42605 -210.32221,-128.26468 0,-70.83862 94.16446,-128.26468 210.32221,-128.26468 116.15774,0 210.3222,57.42606 210.3222,128.26468 z"
       id="path2818-1-8-6-5-0" />
    <g
       id="flowRoot2842-8"
       style="font-style:normal;font-variant:normal;font-weight:normal;font-stretch:normal;font-size:64px;line-height:100%;font-family:'Academy Engraved LET';-inkscape-font-specification:'Academy Engraved LET';text-align:start;writing-mode:lr-tb;text-anchor:start;fill:#000000;fill-opacity:1;stroke:none"
       transform="translate(675.26026,400.03148)">
      <path
         inkscape:connector-curvature="0"
         id="path3021"
         d="m -313.28125,352.2528 h 6.375 c -0.83334,-0.89583 -1.45834,-1.69791 -1.875,-2.40625 -0.43751,-0.64583 -0.84376,-1.47916 -1.21875,-2.5 -0.43751,1.12501 -0.86459,2.00001 -1.28125,2.625 -0.45834,0.70834 -1.12501,1.46876 -2,2.28125 z m 40.53125,-39.875 h -6 c 0.99996,0.50004 1.76038,1.01046 2.28125,1.53125 0.52079,0.52088 1.03121,1.28129 1.53125,2.28125 0.37496,-0.99996 0.68746,-1.71871 0.9375,-2.15625 0.29162,-0.49996 0.70829,-1.05204 1.25,-1.65625 z m -36.4375,3.9375 34.25,36.5625 v -4.90625 l -29.3125,-31.3125 c -1.35418,-1.41662 -2.4271,-2.84371 -3.21875,-4.28125 h -6.375 c 1.47916,0.87504 3.03124,2.18754 4.65625,3.9375 z m 35.4375,6.09375 v 32.4375 h -0.9375 L -309,318.3153 l 0.0312,20.96875 c -1e-5,2.39585 0.13541,4.27085 0.40625,5.625 0.29166,1.39584 0.72916,2.61459 1.3125,3.65625 1.39582,2.27084 3.6979,3.70834 6.90625,4.3125 v 0.96875 h -16.34375 v -0.96875 c 2.8125,-1.04166 4.68749,-3.01041 5.625,-5.90625 0.33333,-0.91666 0.56249,-1.97915 0.6875,-3.1875 0.12499,-1.16665 0.18749,-2.62498 0.1875,-4.375 v -22.375 c -1.66667,-1.68746 -2.91667,-2.83329 -3.75,-3.4375 -0.85417,-0.60412 -1.85417,-1.08329 -3,-1.4375 v -0.96875 h 12.125 c 0.49999,0.87504 1.04165,1.66671 1.625,2.375 0.10415,0.0625 0.33332,0.31254 0.6875,0.75 0.12498,0.14588 0.24478,0.2865 0.35938,0.42188 0.11456,0.13545 0.2031,0.25525 0.26562,0.35937 0.14582,0.14588 0.26561,0.27087 0.35938,0.375 0.0937,0.10421 0.15102,0.17712 0.17187,0.21875 l 26.40625,28.21875 v -21.5 c -4e-5,-2.16663 -0.27088,-3.96871 -0.8125,-5.40625 -0.54171,-1.37496 -1.40629,-2.45829 -2.59375,-3.25 -1.18754,-0.79162 -2.75004,-1.32287 -4.6875,-1.59375 v -0.96875 h 14.90625 v 0.96875 c -2.22921,0.60421 -3.7188,1.60421 -4.46875,3 -0.77088,1.39587 -1.15629,3.81254 -1.15625,7.25 z" />
    </g>
    <g
       id="flowRoot2842-5"
       style="font-style:normal;font-variant:normal;font-weight:normal;font-stretch:normal;font-size:64px;line-height:100%;font-family:'Academy Engraved LET';-inkscape-font-specification:'Academy Engraved LET';text-align:start;writing-mode:lr-tb;text-anchor:start;fill:#000000;fill-opacity:1;stroke:none"
       transform="translate(515.37209,400.84479)">
      <path
         inkscape:connector-curvature="0"
         id="path3037"
         d="m -307,312.40905 h -4 l -1.0625,4.46875 c 0.81249,-1.16663 1.57291,-2.06246 2.28125,-2.6875 0.70832,-0.64579 1.63541,-1.23954 2.78125,-1.78125 z m 13.90625,39.84375 h 6.5 l 1,-5.09375 c -0.95837,1.35418 -2.03128,2.44792 -3.21875,3.28125 -1.12503,0.79167 -2.55211,1.39584 -4.28125,1.8125 z m -22.71875,0 h 3.75 l 25.28125,-39.90625 h -3.75 z m 33.75,-12.34375 -2.28125,13.9375 H -317.625 v -1 l 25.65625,-40.46875 H -297.25 c -4.25002,4e-5 -7.58335,0.80213 -10,2.40625 -2.43751,1.62504 -4.46876,4.37504 -6.09375,8.25 H -314.5 l 2.4375,-11.84375 h 28.75 v 0.96875 l -25.53125,40.09375 h 7.40625 c 3.04165,0 5.71873,-0.35416 8.03125,-1.0625 2.33331,-0.72916 4.13539,-1.72916 5.40625,-3 1.93747,-1.93749 3.49997,-4.6979 4.6875,-8.28125 z" />
    </g>
    <text
       xml:space="preserve"
       style="font-style:normal;font-weight:normal;font-size:34.43884659px;line-height:1.25;font-family:sans-serif;letter-spacing:0px;word-spacing:0px;fill:#000000;fill-opacity:1;stroke:none;stroke-width:0.86097115"
       x="143.72469"
       y="796.74408"
       id="text244-4"><tspan
         sodipodi:role="line"
         id="tspan242-2"
         x="143.72469"
         y="796.74408"
         style="stroke-width:0.86097115">Integers</tspan></text>
    <text
       xml:space="preserve"
       style="font-style:normal;font-weight:normal;font-size:34.43884659px;line-height:1.25;font-family:sans-serif;letter-spacing:0px;word-spacing:0px;fill:#000000;fill-opacity:1;stroke:none;stroke-width:0.86097115"
       x="319.08099"
       y="797.80347"
       id="text244-2"><tspan
         sodipodi:role="line"
         id="tspan242-6"
         x="319.08099"
         y="797.80347"
         style="stroke-width:0.86097115">Natural</tspan></text>
    <text
       xml:space="preserve"
       style="font-style:normal;font-weight:normal;font-size:34.43884659px;line-height:1.25;font-family:sans-serif;letter-spacing:0px;word-spacing:0px;fill:#000000;fill-opacity:1;stroke:none;stroke-width:0.86097115"
       x="509.9816"
       y="594.45978"
       id="text244-5"><tspan
         sodipodi:role="line"
         id="tspan242-1"
         x="509.9816"
         y="594.45978"
         style="stroke-width:0.86097115">Real</tspan></text>
    <text
       xml:space="preserve"
       style="font-style:normal;font-weight:normal;font-size:34.43884659px;line-height:1.25;font-family:sans-serif;letter-spacing:0px;word-spacing:0px;fill:#000000;fill-opacity:1;stroke:none;stroke-width:0.86097115"
       x="570.87708"
       y="740.25513"
       id="text244-8"><tspan
         sodipodi:role="line"
         id="tspan242-8"
         x="570.87708"
         y="740.25513"
         style="stroke-width:0.86097115">Irrational</tspan></text>
    <text
       xml:space="preserve"
       style="font-style:normal;font-weight:normal;font-size:34.43884659px;line-height:1.25;font-family:sans-serif;letter-spacing:0px;word-spacing:0px;fill:#000000;fill-opacity:1;stroke:none;stroke-width:0.86097115"
       x="724.12421"
       y="550.88263"
       id="text244-9"><tspan
         sodipodi:role="line"
         id="tspan242-66"
         x="724.12421"
         y="550.88263"
         style="stroke-width:0.86097115">Complex</tspan></text>
    <text
       xml:space="preserve"
       style="font-style:normal;font-weight:normal;font-size:34.43884659px;line-height:1.25;font-family:sans-serif;letter-spacing:0px;word-spacing:0px;fill:#000000;fill-opacity:1;stroke:none;stroke-width:0.86097115"
       x="794.95953"
       y="705.84509"
       id="text244-3"><tspan
         sodipodi:role="line"
         id="tspan242-83"
         x="794.95953"
         y="705.84509"
         style="stroke-width:0.86097115">Imaginary</tspan></text>
  </g>
</svg>
